<svg t="1594976907250" class="icon" width="14" height="14" viewBox="0 0 1024 1024" version="1.1" xmlns="http://www.w3.org/2000/svg" p-id="3524" width="200" height="200"><path d="M367.236 815.656V320.804c0-14.648-11.216-26.532-25.024-26.532-13.8 0-25.024 11.888-25.024 26.532v494.852c0 14.632 11.228 26.54 25.024 26.54 13.808-0.032 25.024-11.94 25.024-26.54z" p-id="3525"></path><path d="M872.632 271.768c-13.772 0-24.996 11.912-24.996 26.516v607.336c0 22.604-17.304 40.98-38.628 40.98H214.9c-21.324 0-38.656-18.376-38.656-40.98V298.284c0-14.604-11.208-26.516-25.024-26.516-9.76 0-18.468 6-22.564 15.076l-2.42-1.44v620.216c0 51.84 39.76 94.008 88.664 94.008h594.108c48.904 0 88.676-42.168 88.676-94.008V298.284c0-14.608-11.26-26.516-25.052-26.516z" p-id="3526"></path><path d="M536.972 815.656V320.804c0-14.648-11.216-26.532-25.028-26.532-13.796 0-25.008 11.888-25.008 26.532v494.852c0 14.632 11.216 26.54 25.008 26.54 13.812-0.032 25.028-11.94 25.028-26.54zM706.728 815.656V320.804c0-14.648-11.236-26.532-25.028-26.532-13.796 0-25.032 11.888-25.032 26.532v494.852c0 14.632 11.236 26.54 25.032 26.54 13.78-0.032 25.028-11.94 25.028-26.54zM936.42 114.304h-242.756l-77.2-81.8c-4.96-5.256-11.588-8.136-18.596-8.136H426.16c-7.068 0-13.68 2.904-18.644 8.168L330.38 114.304H87.576c-13.796 0-25.008 11.908-25.008 26.528 0 14.644 11.216 26.532 25.008 26.532h256.236c7.036 0 13.664-2.904 18.628-8.156l77.156-81.796h144.768l77.196 81.796c4.96 5.252 11.516 8.128 18.984 8.128h0.044l255.82 0.028c13.796 0 25.032-11.888 25.032-26.532-0.004-14.62-11.208-26.528-25.02-26.528z" p-id="3527"></path></svg>