<svg width="18" t="1573535149469" class="icon" viewBox="0 0 1109 1024" version="1.1" xmlns="http://www.w3.org/2000/svg" p-id="14954" width="200" height="200"><path d="M1024 0h-128c-23.552 0-42.666667 17.152-42.666667 38.4s19.114667 38.4 42.666667 38.4h85.674667c23.381333 0 42.325333 17.066667 42.325333 38.058667v794.282666c0 20.992-18.944 38.058667-42.325333 38.058667H127.658667c-23.381333 0-42.325333-17.066667-42.325334-38.058667V114.858667C85.333333 93.866667 104.277333 76.8 127.658667 76.8H213.333333c23.552 0 42.666667-17.152 42.666667-38.4S236.885333 0 213.333333 0H85.333333C38.229333 0 0 34.389333 0 76.8v870.4c0 42.410667 38.229333 76.8 85.333333 76.8h938.666667c47.104 0 85.333333-34.389333 85.333333-76.8V76.8c0-42.410667-38.229333-76.8-85.333333-76.8z" p-id="14955"></path><path d="M328.704 386.56a45.738667 45.738667 0 0 0-59.818667 0c-17.066667 15.36-17.066667 39.509333-0.512 54.357333L522.24 669.269333A44.288 44.288 0 0 0 554.325333 682.666667c13.653333 0 25.088-5.12 32.853334-13.397334l253.781333-228.352a35.498667 35.498667 0 0 0 0-53.845333 45.909333 45.909333 0 0 0-60.330667-0.426667L597.333333 551.594667V38.058667C597.333333 17.066667 578.389333 0 555.008 0 530.944 0 512 17.066667 512 38.058667v513.536L328.704 386.56z" p-id="14956"></path></svg>
