<svg t="1610510812146" viewBox="0 0 1024 1024" version="1.1" xmlns="http://www.w3.org/2000/svg" p-id="3880" width="200" height="200"><path d="M732 291.4c-39.4-103.9-123.2-169.3-250-169.3-161.3 0-274.2 119.6-284 276.4-78 24.7-134 104-134 194 0 109.8 86.5 203 188.6 203.3h25.1c15.3 0 27.8-12.5 27.8-27.8s-12.6-27.8-27.8-27.8h-25.1c-71.7 0-133.5-67.2-133.5-146.9 0-70.3 49.3-133.9 111.1-144.7l25.5-4.5-2.2-25.5v-0.4C253.5 282 343.1 179 482 179c111.1 0 173.8 54.7 202.5 148.3l5.8 19.3 20.2 0.4c103.9 2.2 195.3 86.5 195.3 191.3 0 95.4-63.1 201.6-159 201.6h-8.1c-15.3 0-27.8 12.6-27.8 27.8 0 15.3 12.6 27.8 27.8 27.8 140.2-4.1 220.9-137.6 221.3-258.1 0-129.2-101.2-232.7-228-246z" p-id="3881"></path><path d="M629.8 742.6c-7.6-8.1-20.6-8.1-28.2 0L539.4 811V528.5c0-15.3-12.6-27.8-27.8-27.8-15.3 0-27.8 12.5-27.8 27.8v282.3l-60-66.4c-7.6-8.1-20.6-9.9-28.2-1.8l-7.2 4c-7.6 8.1-7.6 21.5 0 29.6l101.3 111.5c0.4 0 0.4 0.4 0.4 0.4l7.2 7.6c4 4.5 8.9 6.3 14.3 6.3 5.3 0 10.3-2.3 14.3-6.3l7.2-7.6c0.4 0 0.4-0.4 0.4-0.4L637 774.3c7.6-8.1 7.6-17.9 0-26l-7.2-5.7z" p-id="3882"></path></svg>