<svg t="1610699862560" width="18" height="18" style="margin-top: 2px" viewBox="0 0 1264 1024" version="1.1" xmlns="http://www.w3.org/2000/svg" p-id="11143" xmlns:xlink="http://www.w3.org/1999/xlink" width="246.875" height="200"><defs><style type="text/css"></style></defs><path d="M56.952099 726.344691v249.388247h250.56395V726.344691H56.939457zM11.377778 726.332049c0-25.031111 20.35358-45.334123 45.549037-45.334123h250.576592a45.409975 45.409975 0 0 1 45.549037 45.334123v249.413531c0 25.031111-20.35358 45.334123-45.549037 45.334124H56.939457A45.409975 45.409975 0 0 1 11.377778 975.74558V726.332049zM512.505679 975.732938h250.563951V726.344691H512.505679v249.388247z m-45.549037-249.400889c0-25.031111 20.35358-45.334123 45.549037-45.334123H763.06963a45.409975 45.409975 0 0 1 45.549037 45.334123v249.413531c0 25.031111-20.35358 45.334123-45.549037 45.334124H512.505679a45.409975 45.409975 0 0 1-45.549037-45.334124V726.332049zM968.084543 975.732938h250.563951V726.344691h-250.563951v249.388247z m-45.561679-249.400889c0-25.031111 20.35358-45.334123 45.549037-45.334123h250.576593A45.409975 45.409975 0 0 1 1264.197531 726.332049v249.413531c0 25.031111-20.35358 45.334123-45.549037 45.334124H968.071901a45.409975 45.409975 0 0 1-45.549037-45.334124V726.332049z" p-id="11144"></path><path d="M53.475556 566.891457V61.541136c0-0.088494 1145.805432-0.12642 1145.805432-0.12642l0.050568 509.383111 50.567901 0.113778V61.541136a50.694321 50.694321 0 0 0-50.618469-50.694321H53.538765A50.643753 50.643753 0 0 0 2.907654 61.541136v505.350321h50.567902z" p-id="11145"></path><path d="M0 533.617778m22.667062 0l865.798321 0q22.667062 0 22.667061 22.667062l0 0.012641q0 22.667062-22.667061 22.667062l-865.798321 0q-22.667062 0-22.667062-22.667062l0-0.012641q0-22.667062 22.667062-22.667062Z" p-id="11146"></path><path d="M1025.024 533.617778m22.667062 0l182.448987 0q22.667062 0 22.667062 22.667062l0 0.012641q0 22.667062-22.667062 22.667062l-182.448987 0q-22.667062 0-22.667062-22.667062l0-0.012641q0-22.667062 22.667062-22.667062Z" p-id="11147"></path></svg>