<svg t="1610699996144" width="17" height="17" viewBox="0 0 1024 1024" version="1.1" xmlns="http://www.w3.org/2000/svg" p-id="17076" xmlns:xlink="http://www.w3.org/1999/xlink" width="200" height="200"><defs><style type="text/css"></style></defs><path d="M978.16 13.69H46.56a34.2 34.2 0 0 0-34.2 34.2v931.59a34.2 34.2 0 0 0 34.2 34.21h931.6a34.2 34.2 0 0 0 34.2-34.21V47.89a34.2 34.2 0 0 0-34.2-34.2zM944 317.31H706V82.1h238zM387.13 630V385.72h250.46V630z m250.46 68.4v246.88H387.13V698.4zM80.77 385.72h238V630h-238z m306.36-68.41V82.1h250.46v235.21zM706 385.72h238V630H706zM318.72 82.1v235.21h-238V82.1z m-238 616.3h238v246.88h-238zM706 945.28V698.4h238v246.88z" p-id="17077"></path></svg>