<svg t="1610443878299" viewBox="0 0 1024 1024" version="1.1" xmlns="http://www.w3.org/2000/svg" p-id="6490" width="200" height="200"><path d="M423.253 543.858a141.653 141.653 0 0 1 0-202.525l202.525-199.68a142.222 142.222 0 0 1 199.68 199.68l-60.302 62.01 40.39 39.821 60.303-60.302a199.111 199.111 0 0 0-284.445-281.6L382.862 302.65a199.68 199.68 0 0 0 0 281.6z" p-id="6491"></path><path d="M543.858 423.253a141.653 141.653 0 0 1 0 200.818L341.333 825.458a142.222 142.222 0 0 1-199.68-199.68l60.303-62.01-40.392-39.821-60.302 60.302a199.111 199.111 0 0 0 284.445 284.444l201.386-201.386a199.68 199.68 0 0 0 0-281.6zM1024 739.556H853.333V568.889h-56.889v170.667H625.778v56.888h170.666v170.667h56.89V796.444H1024v-56.888z" p-id="6492"></path></svg>