<svg width="18" height="18" t="1573534894549" class="icon" viewBox="0 0 1024 1024" version="1.1" xmlns="http://www.w3.org/2000/svg" p-id="10318" width="200" height="200"><path d="M981.333333 298.666667h-213.333333a42.666667 42.666667 0 0 1-42.666667-42.666667V42.666667a42.666667 42.666667 0 0 1 85.333334 0v170.666666h170.666666a42.666667 42.666667 0 0 1 0 85.333334zM256 1024a42.666667 42.666667 0 0 1-42.666667-42.666667v-170.666666H42.666667a42.666667 42.666667 0 0 1 0-85.333334h213.333333a42.666667 42.666667 0 0 1 42.666667 42.666667v213.333333a42.666667 42.666667 0 0 1-42.666667 42.666667zM256 298.666667H42.666667a42.666667 42.666667 0 0 1 0-85.333334h170.666666V42.666667a42.666667 42.666667 0 0 1 85.333334 0v213.333333a42.666667 42.666667 0 0 1-42.666667 42.666667z m512 426.666666h213.333333a42.666667 42.666667 0 0 1 0 85.333334h-170.666666v170.666666a42.666667 42.666667 0 0 1-85.333334 0v-213.333333a42.666667 42.666667 0 0 1 42.666667-42.666667z" p-id="10319"></path></svg>
