<svg width="20" height="20" t="1573534727290" class="icon" viewBox="0 0 1024 1024" version="1.1" xmlns="http://www.w3.org/2000/svg" p-id="8967" width="200" height="200"><path d="M405.55 382.86c27.2 0 48.33 8.18 63.39 24.55 15.05 16.36 22.58 39.46 22.58 69.29v0.21c0 12.29-1.94 25.51-5.8 39.67-3.87 14.16-8.98 28.21-15.33 42.15L411.35 688.4h-52.82l70.64-150.18 4.97 7.46c-3.59 6.49-8.91 11.19-15.95 14.09-7.04 2.9-15.19 4.35-24.44 4.35-22.37 0-40.36-8.04-53.96-24.13-13.6-16.09-20.4-37.46-20.4-64.11v-0.21c0-29.55 7.53-52.41 22.58-68.57 15.03-16.16 36.23-24.24 63.58-24.24z m0 47.85c-11.74 0-20.79 3.8-27.14 11.39-6.35 7.6-9.53 18.3-9.53 32.11v0.21c0 14.09 3.18 24.93 9.53 32.52 6.35 7.6 15.4 11.39 27.14 11.39 11.6 0 20.58-3.83 26.93-11.5 6.35-7.66 9.53-18.54 9.53-32.63v-0.2c0-13.81-3.18-24.48-9.53-32-6.36-7.53-15.33-11.29-26.93-11.29zM631.34 691.51c-29.28 0-51.27-7.66-65.98-22.99-14.71-15.33-22.06-36.18-22.06-62.56V468.41c0-26.65 7.42-47.57 22.27-62.77 14.84-15.19 36.77-22.79 65.77-22.79 29.14 0 51.09 7.56 65.87 22.68 14.78 15.12 22.16 36.08 22.16 62.87v137.55c0 26.65-7.43 47.58-22.27 62.77-14.84 15.19-36.76 22.79-65.76 22.79z m0-47.44c13.67 0 23.51-4.04 29.52-12.12 6.01-8.08 9.01-19.16 9.01-33.25V475.66c0-14.22-3-25.34-9.01-33.35-6.01-8.01-15.85-12.01-29.52-12.01s-23.51 4.01-29.52 12.01c-6.01 8.01-9.01 19.13-9.01 33.35V598.7c0 14.09 3 25.17 9.01 33.25s15.84 12.12 29.52 12.12z" p-id="8968"></path><path d="M709.5 18.23c-1.57 0.22-3.08 0.61-4.53 1.16-16.06 6.2-22.57 11.78-27.86 23.89l-34.18 78.18-9.85-2.43c-34.59-8.54-69.88-12.81-105.47-12.81-20.91 0-41.93 1.48-62.98 4.43-113.47 15.95-214.36 73.11-284.08 160.94-69.68 87.8-99.72 195.44-84.59 303.1 14.95 106.38 72.4 200.15 161.77 264.05 89.57 64.04 200.73 90.61 312.96 74.83 113.6-15.96 214.61-73.21 284.42-161.18 38.86-48.95 65.34-104.52 78.71-165.16l2.72-12.32 1.96 0.53c0.64-2.3 1.16-4.97 1.31-7.83 0.6-10.86-4.21-19.78-14.67-27.25-7.18-5.13-16.13-7.25-25.2-5.98-9.21 1.3-17.37 5.92-22.99 12.99-18.62 23.46-15.3 42.51-14.95 44.21l0.92 3.25-1.06 2.98c-12.46 42.68-32.94 82.16-60.86 117.35-58.56 73.8-143.23 121.82-238.41 135.2a380.587 380.587 0 0 1-52.85 3.71c-75.71 0-148.68-22.93-209.75-66.61-75.41-53.92-123.89-133.13-136.51-223.02-12.78-90.9 12.52-181.68 71.23-255.64 58.4-73.6 142.85-121.48 237.8-134.82 43.58-6.12 87.24-4.63 129.76 4.43l14.42 3.07-33.46 76.57c-5.36 12.29-3.72 24.69 4.63 34.91 8.46 10.35 20.86 15 34.92 13.09 0.35-0.06 0.66-0.1 0.91-0.12l0.27-0.03 231.82-20.17c15.85-2.38 28.25-10.54 33.2-21.86 4.8-10.99 2.08-24.41-7.29-35.89l-0.49-0.64L743.21 33.13c-7.29-8.69-21.77-16.58-33.71-14.9z" p-id="8969"></path></svg>
