<svg t="1610350003718" width="19" height="19" style="margin-top: -1" viewBox="0 0 1024 1024" version="1.1" xmlns="http://www.w3.org/2000/svg" p-id="4320" xmlns:xlink="http://www.w3.org/1999/xlink" width="200" height="200"><defs><style type="text/css"></style></defs><path d="M937.344 280.021333c13.312 1.28 24.32 6.656 32.981333 16 8.661333 9.301333 12.373333 19.968 11.008 32l-27.989333 525.994667a46.506667 46.506667 0 0 1-16 32 43.392 43.392 0 0 1-34.005333 9.984l-660.010667-32a55.253333 55.253333 0 0 1-32.981333-13.994667c-8.661333-8.021333-12.373333-18.688-11.008-32l4.010666-91.989333-30.037333 2.005333a39.253333 39.253333 0 0 1-30.976-9.002666 41.088 41.088 0 0 1-15.018667-27.008L85.333333 219.989333a36.266667 36.266667 0 0 1 8.96-29.013333 42.666667 42.666667 0 0 1 29.013334-14.976L715.392 128a39.253333 39.253333 0 0 1 30.976 8.96c8.661333 7.381333 13.653333 16.384 15.018667 27.050667l9.984 107.989333 165.973333 8.021333z m-709.973333 11.946667c1.28-11.946667 6.314667-22.314667 14.933333-30.976 8.704-8.661333 19.712-12.970667 33.024-12.970667l438.016 21.973334-4.010667-61.994667h-2.005333v-2.005333c-2.645333-10.666667-9.344-16-20.010667-16L165.333333 233.984c-13.354667 0-20.010667 6.016-20.010666 18.005333v2.005334l32 356.010666L213.333333 560l13.994667-267.989333z m667.946666 472.021333l20.053334-395.989333v-2.005333c0-13.312-7.381333-20.010667-22.058667-20.010667l-115.968-5.973333-58.026667-4.010667-407.978666-18.005333c-13.354667 0-21.333333 5.973333-24.021334 18.005333v2.005333l-5.973333 125.994667-13.994667 256v13.994667l11.946667-13.994667 204.032-218.026667a38.4 38.4 0 0 1 27.989333-11.946666c12.032 0 21.333333 4.650667 28.032 13.994666l85.973334 97.962667 5.973333 6.016a27.136 27.136 0 0 0 20.053333 8.021333c3.968 0 9.984-2.005333 17.962667-6.016l34.005333-24.021333a34.432 34.432 0 0 1 22.016-7.978667c10.666667 0 18.005333 3.328 22.016 9.984l53.973334 66.005334 93.994666 109.994666z m-128-240c-19.968 0-36.650667-6.656-50.005333-20.010666-13.312-13.312-19.968-29.994667-19.968-49.962667 0-20.053333 6.997333-36.693333 20.992-50.005333 13.994667-13.354667 30.293333-20.010667 48.981333-20.010667 20.053333 0 36.693333 6.997333 50.005334 20.992 13.354667 13.994667 20.010667 30.336 20.010666 49.024 0 18.645333-6.997333 34.986667-20.992 48.981333-13.994667 13.994667-30.336 20.992-49.024 20.992z" p-id="4321"></path></svg>